:SAMPLES-PER-SECOND 30
:FULLY-SPECIFIED
:DEGREES
481
root  -10.3723 38.3037 0.656308 -92.1453 -84.617 81.3832
RightUpLeg  -0.94348 -0.123584 -13.909
RightLeg  68.0526 2.06801 4.955
RightFoot  -0.365944 -1.0417 10.7948
RightToes  -5.8209e-011 0 -3.6325e-017
Spine  9.12278 2.21582 -2.56085
Spine1  13.1012 3.44462 -7.72452
HEad  -19.7494 -0.363285 -2.11449
LeftShoulder1  0.359707 2.44044 -27.6716
LeftArm  -10.2223 -5.26103 -22.9302
LeftForeArm  51.2076 -78.4776 -75.8956
LeftHand  -0.0455457 -0.239277 0.9815
RightShoulder  0.00193788 -3.47027 25.3699
RightArm  -13.391 -6.2593 40.7625
RightForeArm  98.6418 74.9787 130.739
RightHand  -0.0969669 0.478723 -1.97207
LeftUpLeg  -9.6094 6.2404 -6.89207
LeftLeg  24.5772 5.44036 3.06413
LeftFoot  -4.25986 -0.327221 5.70199
LeftToes  -8.31281e-010 4.41007e-011 3.74621e-011
482
root  -11.3795 38.6268 0.787775 -82.5209 -85.6084 72.085
RightUpLeg  -6.88493 -0.812189 -12.2234
RightLeg  72.3535 1.16696 3.24499
RightFoot  -0.924018 -0.889719 9.65931
RightToes  -5.8209e-011 0 -3.6325e-017
Spine  9.00456 1.5083 -3.26958
Spine1  12.8285 2.07827 -6.05035
HEad  -19.1049 0.208477 -2.87142
LeftShoulder1  0.364542 2.43122 -27.8459
LeftArm  -9.42026 -5.98283 -23.1718
LeftForeArm  49.7891 -78.3966 -73.9403
LeftHand  -0.0354472 -0.665984 0.753901
RightShoulder  -0.0374067 -3.59386 25.6262
RightArm  -13.9466 -7.06125 40.0851
RightForeArm  100.046 74.5341 132.58
RightHand  -0.115821 0.679692 -2.29091
LeftUpLeg  -7.42172 6.08795 -5.76793
LeftLeg  23.1148 5.01231 2.63156
LeftFoot  -5.33037 -0.267649 5.70764
LeftToes  -8.31281e-010 4.41007e-011 3.74621e-011
483
root  -12.3993 38.905 0.928014 -68.6412 -86.1589 58.5463
RightUpLeg  -12.287 -1.76838 -10.819
RightLeg  73.8881 0.73681 1.90121
RightFoot  -2.06444 -0.695499 8.38642
RightToes  -5.8209e-011 0 -3.6325e-017
Spine  8.87727 0.701708 -3.54475
Spine1  12.3183 0.924961 -5.08637
HEad  -18.1691 0.965738 -2.67306
LeftShoulder1  0.425505 2.23669 -27.4228
LeftArm  -8.92976 -6.25934 -24.182
LeftForeArm  49.5251 -78.3792 -73.5706
LeftHand  -0.0567456 -0.317798 1.19876
RightShoulder  0.00630262 -3.4568 25.3033
RightArm  -15.3445 -9.19268 40.3375
RightForeArm  104.241 73.656 136.104
RightHand  -0.0779227 0.664992 -1.56611
LeftUpLeg  -5.14753 6.15506 -4.81419
LeftLeg  21.4646 4.19143 1.94036
LeftFoot  -6.46331 -0.202479 5.65998
LeftToes  -8.31281e-010 4.41007e-011 3.74621e-011
484
root  -13.4381 39.1171 1.0571 -59.2853 -86.4033 49.2201
RightUpLeg  -16.6831 -2.12716 -9.55198
RightLeg  72.542 0.555449 1.05532
RightFoot  -3.33644 -0.562902 7.70727
RightToes  -5.8209e-011 0 -3.6325e-017
Spine  8.84924 0.149696 -4.05762
Spine1  12.169 0.0686153 -4.2668
HEad  -17.2757 0.955969 -1.83043
LeftShoulder1  0.433548 2.20483 -27.2216
LeftArm  -8.74402 -7.02397 -24.9187
LeftForeArm  49.0038 -78.3488 -73.0829
LeftHand  -0.0618662 -0.0929746 1.33138
RightShoulder  -0.0262055 -3.55925 25.4659
RightArm  -16.4831 -10.7299 40.1811
RightForeArm  106.637 72.5956 139.365
RightHand  -0.10943 0.825016 -2.15072
LeftUpLeg  -2.57405 6.13103 -4.14985
LeftLeg  19.8974 3.88533 1.5561
LeftFoot  -7.66877 -0.126781 5.38459
LeftToes  -8.31281e-010 4.41007e-011 3.74621e-011
485
root  -14.4964 39.2383 1.17598 -54.8948 -86.647 44.8577
RightUpLeg  -20.308 -2.09348 -8.40308
RightLeg  68.6273 0.598831 0.977635
RightFoot  -4.39245 -0.476839 7.3667
RightToes  -5.8209e-011 0 -3.6325e-017
Spine  8.71959 -0.196374 -4.53696
Spine1  12.1707 -0.573189 -3.1976
HEad  -17.0052 1.86704 -1.79755
LeftShoulder1  0.390508 2.34369 -27.5037
LeftArm  -8.77912 -8.0134 -25.3862
LeftForeArm  48.6709 -78.3332 -73.041
LeftHand  -0.0571047 -0.177498 1.22054
RightShoulder  -0.0113234 -3.5127 25.0975
RightArm  -17.655 -12.2285 40.2112
RightForeArm  109.692 71.2325 142.963
RightHand  -0.119503 0.263783 -2.4973
LeftUpLeg  -0.249716 6.78934 -3.46038
LeftLeg  18.9434 3.17587 1.06317
LeftFoot  -9.19385 -0.0411412 5.16372
LeftToes  -8.31281e-010 4.41007e-011 3.74621e-011
486
root  -15.5655 39.3014 1.29147 -50.5228 -86.5779 40.3385
RightUpLeg  -22.4966 -2.40707 -7.64051
RightLeg  61.8658 0.769827 1.01579
RightFoot  -5.52544 -0.427775 7.65763
RightToes  -5.8209e-011 0 -3.6325e-017
Spine  8.91734 -0.605539 -4.71896
Spine1  11.9988 -1.01932 -2.75789
HEad  -17.2103 1.70163 -1.37552
LeftShoulder1  0.420653 2.23806 -27.0684
LeftArm  -8.80661 -8.7685 -26.3594
LeftForeArm  47.7487 -78.2679 -71.8155
LeftHand  -0.0455986 -0.163289 0.986969
RightShoulder  -0.0726071 -3.70542 25.5485
RightArm  -18.5738 -13.0999 39.3869
RightForeArm  112.232 69.9426 145.816
RightHand  -0.109575 0.493556 -2.22572
LeftUpLeg  2.27055 7.25284 -3.0259
LeftLeg  18.0075 2.54428 0.653051
LeftFoot  -10.6633 0.0336575 5.13087
LeftToes  -8.31281e-010 4.41007e-011 3.74621e-011
487
root  -16.6955 39.3216 1.41632 -56.4446 -86.8192 45.9046
RightUpLeg  -23.0345 -2.30395 -7.04642
RightLeg  52.105 1.30973 1.44412
RightFoot  -6.14473 -0.378549 7.41151
RightToes  -5.8209e-011 0 -3.6325e-017
Spine  8.65862 -0.783634 -4.84439
Spine1  12.6258 -1.21634 -2.23895
HEad  -17.3169 2.49708 -1.12978
LeftShoulder1  0.429386 2.19898 -26.7322
LeftArm  -8.93989 -8.94006 -27.1286
LeftForeArm  50.1539 -78.4185 -74.3931
LeftHand  -0.0824737 0.104342 1.81753
RightShoulder  -0.0668789 -3.68617 25.7085
RightArm  -19.5403 -13.6263 38.972
RightForeArm  114.517 68.6478 148.288
RightHand  -0.0941008 -0.11619 -2.07416
LeftUpLeg  5.17844 7.65596 -2.7582
LeftLeg  17.0173 2.57089 0.466067
LeftFoot  -12.1168 0.106814 4.99569
LeftToes  -8.31281e-010 4.41007e-011 3.74621e-011
488
root  -17.8317 39.2844 1.54386 -56.492 -86.5969 46.1241
RightUpLeg  -22.561 -2.82779 -6.62408
RightLeg  39.4528 1.72452 1.27237
RightFoot  -6.06336 -0.388744 7.52485
RightToes  -5.8209e-011 0 -3.6325e-017
Spine  8.01926 -1.09042 -4.89497
Spine1  13.0327 -1.52977 -1.58425
HEad  -17.8103 3.13578 -1.66551
LeftShoulder1  0.42513 2.22708 -27.1204
LeftArm  -8.93936 -9.47033 -27.4252
LeftForeArm  49.5605 -78.381 -73.5814
LeftHand  -0.0544769 -0.123868 1.16992
RightShoulder  -0.0800313 -3.72648 25.751
RightArm  -20.4524 -14.3504 38.6111
RightForeArm  116.2 67.3858 150.351
RightHand  -0.0967479 0.277325 -2.01734
LeftUpLeg  7.39494 7.93765 -2.64881
LeftLeg  16.1855 2.02955 0.0561648
LeftFoot  -13.7776 0.187363 4.90748
LeftToes  -8.31281e-010 4.41007e-011 3.74621e-011
489
root  -19.0095 39.183 1.67498 -59.9823 -86.0876 49.6125
RightUpLeg  -20.4906 -3.43517 -6.6702
RightLeg  24.8307 1.95267 0.783667
RightFoot  -6.15678 -0.408938 8.0943
RightToes  -5.8209e-011 0 -3.6325e-017
Spine  7.78857 -1.33282 -4.9611
Spine1  13.0445 -1.74864 -1.24187
HEad  -17.6634 2.50147 -2.01478
LeftShoulder1  0.428452 2.23486 -27.6574
LeftArm  -8.85355 -9.79886 -27.4177
LeftForeArm  49.6239 -78.3894 -73.9466
LeftHand  -0.0497992 -0.136146 1.07356
RightShoulder  -0.104837 -3.8004 26.0416
RightArm  -21.1783 -15.1821 37.931
RightForeArm  117.592 66.0736 152.239
RightHand  -0.123016 0.730013 -2.42697
LeftUpLeg  9.80534 7.92436 -3.07507
LeftLeg  15.4592 1.9739 -0.0503726
LeftFoot  -15.3241 0.253804 4.65997
LeftToes  -8.31281e-010 4.41007e-011 3.74621e-011
490
root  -20.2415 39.0536 1.79177 -60.3453 -85.4543 50.1709
RightUpLeg  -18.0353 -4.82359 -6.54738
RightLeg  10.4626 3.10792 0.284078
RightFoot  -6.55602 -0.384761 8.12903
RightToes  -5.8209e-011 0 -3.6325e-017
Spine  7.09812 -1.70036 -5.00461
Spine1  13.4008 -2.17733 -0.594492
HEad  -17.884 3.29269 -2.75244
LeftShoulder1  0.324488 2.56605 -28.4382
LeftArm  -8.78312 -10.389 -27.0791
LeftForeArm  49.243 -78.3753 -74.0657
LeftHand  -0.0511606 -0.423763 1.07309
RightShoulder  0.00113421 -3.47381 25.471
RightArm  -22.0151 -16.1701 37.9378
RightForeArm  118.377 64.9231 153.681
RightHand  -0.123349 0.153747 -2.61417
LeftUpLeg  12.2258 7.80378 -3.49893
LeftLeg  14.4093 1.80322 -0.131302
LeftFoot  -16.8231 0.298488 4.11678
LeftToes  -8.31281e-010 4.41007e-011 3.74621e-011
491
root  -21.5701 38.8712 1.8716 -60.3657 -84.831 50.3012
RightUpLeg  -16.2271 -7.46017 -6.08566
RightLeg  0.361719 5.83236 -0.262715
RightFoot  -6.31831 -0.406308 8.23733
RightToes  -5.8209e-011 0 -3.6325e-017
Spine  5.84172 -1.88139 -4.18635
Spine1  14.5461 -2.09752 -0.986252
HEad  -18.1916 2.8878 -2.93589
LeftShoulder1  0.327315 2.55452 -28.3378
LeftArm  -8.7137 -11.1519 -27.4817
LeftForeArm  48.5447 -78.3385 -73.5873
LeftHand  -0.071798 -0.269491 1.51527
RightShoulder  -0.0457427 -3.61971 25.7081
RightArm  -22.8903 -17.032 37.547
RightForeArm  118.792 63.5754 155.182
RightHand  -0.125611 0.110066 -2.67916
LeftUpLeg  14.9636 7.91899 -3.59556
LeftLeg  13.3662 1.02317 -0.441461
LeftFoot  -18.4692 0.334893 3.60033
LeftToes  -8.31281e-010 4.41007e-011 3.74621e-011
